<svg height="16" viewBox="0 0 4.2333332 4.2333333" width="16" xmlns="http://www.w3.org/2000/svg"><g fill="#8eef97"><path d="m.79374998.26458333c-.29315802 0-.52916665.23600863-.52916665.52916665v2.64583332c0 .293158.23600863.5291666.52916665.5291666h2.64583332c.293158 0 .5291666-.2360086.5291666-.5291666v-2.64583332c0-.29315802-.2360086-.52916665-.5291666-.52916665zm0 .52916665h2.64583332v2.64583332h-2.64583332z"/><path d="m1.058333 1.5875h.264583v1.058333h-.264583z"/><path d="m1.5875 1.322917h.529167v1.5875h-.529167z"/><path d="m2.38125 1.058333h.79375v2.116667h-.79375z"/><path d="m3.1704147 1.5874999.2691682.5291667-.2691682.5291666z"/><path d="m1.0583333 1.5874999-.25999846.5291665.25999846.5291666z"/></g></svg>