<svg height="16" viewBox="0 0 4.2333332 4.2333333" width="16" xmlns="http://www.w3.org/2000/svg"><g fill="#8eef97"><path d="m.264583.529167h.264583v1.322917h-.264583z"/><path d="m3.704166.529167h.264583v1.322917h-.264583z"/><path d="m.52916663 3.1715961.52916667.5291664.5291667-.5291664.2645833.2645832.2645833-1.3229166-1.32291656.2645833.26458326.2645834z"/><path d="m2.3812499.52916663c-.1465791 0-.2645834.11800432-.2645834.26458332v.79374995c0 .146579.1180043.2645833.2645834.2645833h.7937499c.146579 0 .2645834-.1180043.2645834-.2645833v-.79374995c0-.146579-.1180044-.26458332-.2645834-.26458332zm.2645833.26458332h.2645833c.146579 0 .2645833.1180043.2645833.26458325v.2645834c0 .146579-.1180043.2645833-.2645833.2645833h-.2645833c-.146579 0-.2645833-.1180043-.2645833-.2645833v-.2645834c0-.14657895.1180043-.26458325.2645833-.26458325z"/><path d="m.79375 1.058333h.529167v.264583h-.529167z"/><path d="m1.5875 1.058333h.264583v.264583h-.264583z"/></g></svg>