<?xml version="1.0" encoding="UTF-8" standalone="no"?>
<!-- Created with Inkscape (http://www.inkscape.org/) -->

<svg
   width="16"
   height="16"
   viewBox="0 0 4.2333332 4.2333333"
   version="1.1"
   id="svg1"
   inkscape:version="1.3.2 (091e20e, 2023-11-25, custom)"
   sodipodi:docname="PLDragTarget-working.svg"
   xmlns:inkscape="http://www.inkscape.org/namespaces/inkscape"
   xmlns:sodipodi="http://sodipodi.sourceforge.net/DTD/sodipodi-0.dtd"
   xmlns="http://www.w3.org/2000/svg"
   xmlns:svg="http://www.w3.org/2000/svg">
  <sodipodi:namedview
     id="namedview1"
     pagecolor="#ffffff"
     bordercolor="#000000"
     borderopacity="0.25"
     inkscape:showpageshadow="2"
     inkscape:pageopacity="0.0"
     inkscape:pagecheckerboard="0"
     inkscape:deskcolor="#d1d1d1"
     inkscape:document-units="px"
     showgrid="true"
     inkscape:zoom="16.833558"
     inkscape:cx="21.474961"
     inkscape:cy="15.890877"
     inkscape:window-width="2560"
     inkscape:window-height="1377"
     inkscape:window-x="1358"
     inkscape:window-y="-8"
     inkscape:window-maximized="1"
     inkscape:current-layer="layer1">
    <inkscape:grid
       id="grid1"
       units="px"
       originx="0"
       originy="0"
       spacingx="0.26458332"
       spacingy="0.26458333"
       empcolor="#0099e5"
       empopacity="0.30196078"
       color="#0099e5"
       opacity="0.14901961"
       empspacing="4"
       dotted="false"
       gridanglex="30"
       gridanglez="30"
       visible="true" />
  </sodipodi:namedview>
  <defs
     id="defs1" />
  <g
     inkscape:label="Layer 1"
     inkscape:groupmode="layer"
     id="layer1">
    <path
       style="fill:#8eef97;stroke-width:0;stroke-linejoin:round"
       d="m 0.26458326,3.4395832 0.5291667,0.5291664 0.79374994,-0.7937498 0.5291666,0.5291665 10e-8,-1.5874998 -1.58749995,0 0.52916665,0.5291667 -0.79375004,0.79375"
       id="path12"
       sodipodi:nodetypes="cccccccc" />
    <path
       id="path2"
       style="fill:#8eef97;stroke-width:0;stroke-linejoin:round"
       d="M 2.1166666 1.0583333 A 1.0583333 1.0583333 0 0 0 1.0939901 1.8520833 L 1.6608805 1.8520833 A 0.52916664 0.52916664 0 0 1 2.1166666 1.5875 A 0.52916664 0.52916664 0 0 1 2.6458333 2.1166666 A 0.52916664 0.52916664 0 0 1 2.38125 2.5745198 L 2.38125 3.1393432 A 1.0583333 1.0583333 0 0 0 3.1749999 2.1166666 A 1.0583333 1.0583333 0 0 0 2.1166666 1.0583333 z " />
    <path
       id="path4"
       style="fill:#8eef97;stroke-width:0;stroke-linejoin:round"
       d="M 2.1166666 0 A 2.1166666 2.1166666 0 0 0 0 2.1166666 A 2.1166666 2.1166666 0 0 0 0.071313475 2.6458333 L 0.622701 2.6458333 A 1.5875 1.5874999 0 0 1 0.52916666 2.1166666 A 1.5875 1.5874999 0 0 1 2.1166666 0.52916666 A 1.5875 1.5874999 0 0 1 3.7041666 2.1166666 A 1.5875 1.5874999 0 0 1 2.1166666 3.7041666 A 1.5875 1.5874999 0 0 1 1.5875 3.6106323 L 1.5875 4.1620198 A 2.1166666 2.1166666 0 0 0 2.1166666 4.2333332 A 2.1166666 2.1166666 0 0 0 4.2333332 2.1166666 A 2.1166666 2.1166666 0 0 0 2.1166666 0 z " />
  </g>
</svg>
