<svg height="16" viewBox="0 0 4.2333332 4.2333333" width="16" xmlns="http://www.w3.org/2000/svg"><g fill="#8eef97"><path d="m.26458326 3.4395832.5291667.5291664.79374994-.7937498.5291666.5291665.0000001-1.5874998h-1.58749995l.52916665.5291667-.79375004.79375"/><path d="m2.1166666 1.0583333a1.0583333 1.0583333 0 0 0 -1.0226765.79375h.5668904a.52916664.52916664 0 0 1 .4557861-.2645833.52916664.52916664 0 0 1 .5291667.5291666.52916664.52916664 0 0 1 -.2645833.4578532v.5648234a1.0583333 1.0583333 0 0 0 .7937499-1.0226766 1.0583333 1.0583333 0 0 0 -1.0583333-1.0583333z"/><path d="m2.1166666 0a2.1166666 2.1166666 0 0 0 -2.1166666 2.1166666 2.1166666 2.1166666 0 0 0 .07131348.5291667h.55138752a1.5875 1.5874999 0 0 1 -.09353434-.5291667 1.5875 1.5874999 0 0 1 1.58749994-1.58749994 1.5875 1.5874999 0 0 1 1.5875 1.58749994 1.5875 1.5874999 0 0 1 -1.5875 1.5875 1.5875 1.5874999 0 0 1 -.5291666-.0935343v.5513875a2.1166666 2.1166666 0 0 0 .5291666.0713134 2.1166666 2.1166666 0 0 0 2.1166666-2.1166666 2.1166666 2.1166666 0 0 0 -2.1166666-2.1166666z"/></g></svg>