<?xml version="1.0" encoding="UTF-8" standalone="no"?>
<!-- Created with Inkscape (http://www.inkscape.org/) -->

<svg
   width="16"
   height="16"
   viewBox="0 0 4.2333332 4.2333333"
   version="1.1"
   id="svg1"
   inkscape:version="1.3.2 (091e20e, 2023-11-25, custom)"
   sodipodi:docname="PLDragDummy-working.svg"
   xmlns:inkscape="http://www.inkscape.org/namespaces/inkscape"
   xmlns:sodipodi="http://sodipodi.sourceforge.net/DTD/sodipodi-0.dtd"
   xmlns="http://www.w3.org/2000/svg"
   xmlns:svg="http://www.w3.org/2000/svg">
  <sodipodi:namedview
     id="namedview1"
     pagecolor="#ffffff"
     bordercolor="#000000"
     borderopacity="0.25"
     inkscape:showpageshadow="2"
     inkscape:pageopacity="0.0"
     inkscape:pagecheckerboard="0"
     inkscape:deskcolor="#d1d1d1"
     inkscape:document-units="px"
     showgrid="true"
     inkscape:zoom="16.833558"
     inkscape:cx="10.306793"
     inkscape:cy="4.4256835"
     inkscape:window-width="1366"
     inkscape:window-height="745"
     inkscape:window-x="-8"
     inkscape:window-y="290"
     inkscape:window-maximized="1"
     inkscape:current-layer="layer1">
    <inkscape:grid
       id="grid1"
       units="px"
       originx="0"
       originy="0"
       spacingx="0.26458332"
       spacingy="0.26458333"
       empcolor="#0099e5"
       empopacity="0.30196078"
       color="#0099e5"
       opacity="0.14901961"
       empspacing="4"
       dotted="false"
       gridanglex="30"
       gridanglez="30"
       visible="true" />
  </sodipodi:namedview>
  <defs
     id="defs1" />
  <g
     inkscape:label="Layer 1"
     inkscape:groupmode="layer"
     id="layer1">
    <rect
       style="fill:#8eef97;stroke-width:0;stroke-linejoin:round"
       id="rect11"
       width="0.26458332"
       height="1.3229166"
       x="0.26458326"
       y="0.52916658" />
    <rect
       style="fill:#8eef97;stroke-width:0;stroke-linejoin:round"
       id="rect11-8"
       width="0.26458332"
       height="1.3229166"
       x="3.7041664"
       y="0.52916658" />
    <path
       style="fill:#8eef97;stroke-width:0;stroke-linejoin:round"
       d="M 0.52916663,3.1715961 1.0583333,3.7007625 1.5875,3.1715961 1.8520833,3.4361793 2.1166666,2.1132627 0.79375004,2.377846 1.0583333,2.6424294 0.52916663,3.1715961"
       id="path12"
       sodipodi:nodetypes="cccccccc" />
    <path
       id="rect12"
       style="fill:#8eef97;stroke-width:0;stroke-linejoin:round"
       d="m 2.3812499,0.52916663 c -0.1465791,0 -0.2645834,0.11800432 -0.2645834,0.26458332 V 1.5874999 c 0,0.146579 0.1180043,0.2645833 0.2645834,0.2645833 h 0.7937499 c 0.146579,0 0.2645834,-0.1180043 0.2645834,-0.2645833 V 0.79374995 c 0,-0.146579 -0.1180044,-0.26458332 -0.2645834,-0.26458332 z m 0.2645833,0.26458332 h 0.2645833 c 0.146579,0 0.2645833,0.1180043 0.2645833,0.26458325 v 0.2645834 c 0,0.146579 -0.1180043,0.2645833 -0.2645833,0.2645833 H 2.6458332 c -0.146579,0 -0.2645833,-0.1180043 -0.2645833,-0.2645833 V 1.0583332 c 0,-0.14657895 0.1180043,-0.26458325 0.2645833,-0.26458325 z" />
    <rect
       style="fill:#8eef97;stroke-width:0;stroke-linejoin:round"
       id="rect20"
       width="0.5291667"
       height="0.26458332"
       x="0.79374993"
       y="1.0583333" />
    <rect
       style="fill:#8eef97;stroke-width:0;stroke-linejoin:round"
       id="rect20-2"
       width="0.26458326"
       height="0.26458332"
       x="1.5874999"
       y="1.0583333" />
  </g>
</svg>
