<svg height="16" viewBox="0 0 4.2333332 4.2333333" width="16" xmlns="http://www.w3.org/2000/svg"><g fill="#8eef97"><path d="m.529167.264583h1.058333v1.058333h-1.058333z"/><path d="m1.852083.529167h.264583v.529167h-.264583z"/><path d="m2.38125.529167h.264583v.529167h-.264583z"/><path d="m2.910417.529167h.264583v.529167h-.264583z"/><path d="m3.439583.529167h.259298v.529167h-.259298z"/><path d="m.52916666 1.5875v1.0583333h1.05833334v-1.0583333zm.26458332.2645833h.52916662v.5291667h-.52916662z"/><path d="m1.852083 1.852083h.264583v.529167h-.264583z"/><path d="m2.38125 1.852083h.264583v.529167h-.264583z"/><path d="m2.910417 1.852083h.264583v.529167h-.264583z"/><path d="m3.439583 1.852083h.259298v.529167h-.259298z"/><path d="m.529167 2.910417h1.058333v1.058333h-1.058333z"/><path d="m1.852083 3.175h.264583v.529167h-.264583z"/><path d="m2.38125 3.175h.264583v.529167h-.264583z"/><path d="m2.910417 3.175h.264583v.529167h-.264583z"/><path d="m3.439583 3.175h.259298v.529167h-.259298z"/></g></svg>